<?xml version="1.0" encoding="UTF-8" standalone="no"?>
<!-- Created with Inkscape (http://www.inkscape.org/) -->

<svg
   xmlns:dc="http://purl.org/dc/elements/1.1/"
   xmlns:cc="http://creativecommons.org/ns#"
   xmlns:rdf="http://www.w3.org/1999/02/22-rdf-syntax-ns#"
   xmlns:svg="http://www.w3.org/2000/svg"
   xmlns="http://www.w3.org/2000/svg"
   xmlns:sodipodi="http://sodipodi.sourceforge.net/DTD/sodipodi-0.dtd"
   xmlns:inkscape="http://www.inkscape.org/namespaces/inkscape"
   width="210mm"
   height="297mm"
   viewBox="0 0 210 297"
   version="1.1"
   id="svg8"
   inkscape:version="0.92.4 (5da689c313, 2019-01-14)"
   sodipodi:docname="logo.svg">
  <defs
     id="defs2" />
  <sodipodi:namedview
     id="base"
     pagecolor="#ffffff"
     bordercolor="#666666"
     borderopacity="1.0"
     inkscape:pageopacity="0.0"
     inkscape:pageshadow="2"
     inkscape:zoom="4"
     inkscape:cx="556.60417"
     inkscape:cy="759.15056"
     inkscape:document-units="mm"
     inkscape:current-layer="layer1"
     showgrid="false"
     inkscape:window-width="1920"
     inkscape:window-height="986"
     inkscape:window-x="-11"
     inkscape:window-y="-11"
     inkscape:window-maximized="1" />
  <metadata
     id="metadata5">
    <rdf:RDF>
      <cc:Work
         rdf:about="">
        <dc:format>image/svg+xml</dc:format>
        <dc:type
           rdf:resource="http://purl.org/dc/dcmitype/StillImage" />
        <dc:title />
      </cc:Work>
    </rdf:RDF>
  </metadata>
  <g
     inkscape:label="Layer 1"
     inkscape:groupmode="layer"
     id="layer1">
    <g
       id="g63">
      <g
         id="g67" />
    </g>
    <path
       id="path133"
       style="fill:none;stroke:#000000;stroke-width:0.26458332px;stroke-linecap:butt;stroke-linejoin:miter;stroke-opacity:1"
       d="m 203.0677,81.496875 c -14.10411,-9.868478 -57.89212,21.472725 -96.7052,46.831255 -48.833383,31.90529 -49.457143,45.47738 -85.195834,44.45 M 172.8628,189.78879 C 178.14342,175.60464 119.28956,125.18382 106.3625,128.32813 88.560985,132.65808 30.346762,81.289434 40.216666,70.78125 M 143.34934,91.056272 c -1.17165,-1.785674 -4.29668,-5.192023 -5.08802,-5.838694 m 9.4729,3.244301 c -1.45633,-1.549311 -5.17867,-4.3883 -5.91756,-4.633363 m 10.55824,1.50913 c -2.37988,-1.272852 -5.49364,-2.727083 -7.82972,-3.080094 m 11.02759,0.767878 c -2.95928,-1.242087 -5.79254,-2.222395 -9.05975,-2.586888 m 13.14736,-1.128388 c -3.13067,-0.05983 -6.36706,-0.387206 -9.47627,-0.426039 m 14.08907,-2.348177 -13.29532,0.496094 m -10.66141,15.924361 c -0.60251,-1.989183 -2.95001,-4.990729 -4.41984,-6.283606 m 1.95334,7.41637 c 0.25525,-0.340334 -3.25884,-6.502524 -3.73928,-6.672229 m 1.58751,7.60677 c -0.56067,-2.113423 -1.59841,-4.991613 -2.7616,-6.465756 m 1.14102,7.027996 c -0.77029,-3.07803 -1.48021,-4.987928 -2.48046,-6.250781 m 0.36377,6.846093 c -0.26158,-2.259193 -1.57067,-4.938486 -2.28204,-6.763411 m -0.26458,7.325651 c 0.13754,-1.803639 -0.98956,-6.00119 -1.33945,-6.184636 m -2.48435,6.855473 c 0.1894,-2.303965 0.89866,-3.67638 0.18579,-6.855473 m -1.39163,6.599688 c -3.20001,-1.242825 0.17422,-6.12861 -1.07231,-6.897344 m -4.18372,5.705078 c 1.09472,-2.294113 2.59665,-4.859809 2.89388,-6.647656 m 5.83353,7.255269 c -0.0617,-0.994782 -0.30787,-1.889419 -0.59148,-2.707743 m -5.70508,2.364714 c 0.49052,-0.797708 1.00296,-1.684189 1.10795,-3.307292 m 8.26823,3.257682 c 0.18038,-0.164339 -0.35097,-2.163808 -0.59532,-2.000911 m 2.32083,1.480072 c 0.0684,-0.512631 -0.68372,-2.439187 -0.68372,-2.439187 m 2.82135,1.872806 c 0.2285,-0.195454 -0.87005,-2.484655 -0.87005,-2.484655 m 2.59623,1.653646 c 0.0611,0.07098 -0.87131,-2.145473 -1.38906,-2.778125 m 3.32737,1.800365 c -0.306,-0.79355 -0.38175,-1.587903 -1.27685,-2.676797 m 4.66474,0.92284 c -0.82869,-1.634095 -1.95026,-2.177099 -1.98584,-2.212684 m 5.25623,0.568348 c -1.97653,-2.677306 -3.7757,-4.08385 -5.88461,-5.661577 m 5.24206,5.754687 c 0.0795,-0.156111 -1.72001,-1.648283 -1.88516,-1.554426 m 3.36815,0.438175 c -0.95921,-1.019564 -1.79538,-2.200165 -3.05396,-2.620987 m 6.06857,0.446812 c -1.51515,-1.321071 -2.33763,-1.774964 -3.27422,-1.984375 m 7.01964,-0.847532 c -1.04157,-0.796234 -2.046,-1.078273 -3.00097,-1.186781 m 6.06888,-1.273307 c -0.009,-0.265676 -3.22047,-1.340815 -3.05924,-1.058334 m 6.67737,-2.054848 c -1.69387,-0.148439 -2.42293,-0.139699 -3.53545,-0.177574 m 5.63744,-2.068877 c -1.55721,0.09111 -3.07901,0.255168 -4.761,0.398695 m 3.40899,-2.956547 c -1.62797,0.559382 -3.25905,1.081483 -4.93035,1.121 m 2.08017,-2.473007 c -1.17575,0.288623 -2.21876,0.901796 -3.63459,1.017799 m 1.44215,-2.004404 c -0.8381,0.45344 -1.62723,0.79206 -2.84775,1.012216 m -1.16828,-0.631878 c -0.61545,0.446649 -1.60727,0.667479 -2.42014,0.99568 m 20.96111,-0.553849 c -0.93781,1.624423 -20.2836,4.631144 -25.34239,4.581335 m 25.50683,-7.778653 c -6.35449,3.113619 -11.13762,5.196078 -26.61457,7.310242 M 167.3018,66.025857 c -2.98457,2.066916 -0.8429,2.976619 -24.95071,9.811949 m 20.96776,-10.762009 c -2.7591,1.915099 0.26297,3.374231 -21.66934,10.107199 m 14.3612,-7.531076 c -5.62037,4.569815 -11.3901,5.86511 -14.92247,6.85288 m -27.70082,14.265511 c 0.58489,0.179383 0.62855,0.873421 -0.0351,1.15761 m -2.01121,-0.42095 c -0.60786,0.35236 0.20979,1.388929 0.57296,0.900362 m -1.85545,-1.999256 c 1.52407,0.731888 2.23758,2.775101 3.34838,4.664314 0.0268,0.04562 -0.34915,-4.533286 0.0995,-5.695593 M 74.469981,83.163467 c 0.603985,0.140819 0.601099,0.151929 0.967099,0.257487 m -5.205825,0.400239 c 2.216071,0.290159 2.15184,0.21665 3.10442,0.388172 m -7.160446,0.909024 c 5.390234,0.184467 3.885062,0.03407 3.885062,0.03407 m -7.24681,1.86605 c 1.767897,-0.121735 3.459726,-0.340529 5.089317,-0.638735 M 58.958461,77.82852 c 9.01199,6.983971 11.59815,4.981821 16.644157,6.419612 M 54.683191,80.459455 c 7.618493,5.027471 13.461469,3.816318 20.480178,4.30544 M 52.289773,83.857744 c 8.318554,3.915097 14.957885,1.625407 22.098449,1.475592 m 33.845508,27.318524 c 0.30248,-1.68167 0.33736,-2.1931 0.44181,-4.01245 M 96.2849,106.73224 c 1.022646,-0.49461 1.854031,-1.24309 2.765892,-1.85229 m 2.378768,-6.327218 c -0.64081,-1.41172 -1.26907,-2.833895 -2.110333,-4.078568 m -0.0015,3.890285 c -0.330332,-0.623592 -0.68774,-1.243315 -0.78563,-1.900113 m -0.749083,4.129104 c -0.577555,-1.808132 -1.119549,-3.620709 -1.42509,-5.462842 m -0.365407,5.773432 c -0.229338,-1.073397 -0.244198,-2.269354 -0.236139,-3.478407 m -1.485697,3.992007 C 94.020624,99.532157 93.975429,97.518645 93.99938,95.461917 m -1.185908,6.063313 c -0.177064,-1.15885 -0.296147,-2.345113 -0.209355,-3.569926 m -1.325357,4.136306 c -0.05111,-2.767933 -0.05136,-5.550397 0.136801,-8.386691 m -2.219625,7.838571 c 0.02538,-1.50576 0.08572,-2.633003 0.307594,-4.996369 m -1.951927,5.507949 c -0.233124,-3.055102 0.280427,-6.070587 0.608341,-8.298475 m -2.252676,7.567655 c -5.72e-4,-0.6454 -0.0547,-1.469241 0.237295,-2.658393 m -2.575904,2.859363 c 0.801076,-3.129413 1.826707,-6.034272 3.144345,-8.647123 m -4.679056,7.934583 c 0.741674,-1.622684 1.418402,-3.288665 2.353617,-4.782322 m -3.7853,4.767152 c 1.345578,-3.222675 3.079736,-6.272644 4.715475,-9.366354 m -6.046142,8.526611 c 0.672359,-1.50138 1.333353,-3.007132 2.441711,-4.340821 m -5.343178,4.099493 c 2.255189,-3.208606 5.116299,-6.08671 7.707374,-9.112105 m 32.706685,5.056058 c -0.36638,-0.608717 -0.38068,-0.893051 0.0366,-1.205865 0.57326,-0.619525 0.94708,-0.287125 1.1693,-0.292325 0.92581,0.335156 -0.26971,0.933652 0.26801,1.45203 l 2.07055,0.850036 c 0.33242,0.01928 0.56619,-0.158732 0.80391,-0.328866 0.99051,-0.01908 1.01632,0.375289 1.38854,0.621192 1.11089,0.672645 1.72711,0.801162 1.86358,0.40195 -0.22085,-0.644922 -0.55381,-1.313762 -0.32887,-1.863578 0.62119,0.01367 0.91352,1.324333 1.53471,2.119362 0.8376,0.219786 1.71258,-0.301179 2.26554,-0.840437 0.82331,0.08218 1.41375,0.199676 2.79011,-0.125193 0.28465,-0.06719 0.13663,-0.289728 0.28948,-0.267448 0.26497,0.03861 0.79495,0.212303 1.10432,-0.02754 0.55979,-0.433951 0.43567,-0.442481 0.62119,-0.493301 0.79654,-0.218192 1.23457,0.356578 2.13763,-0.566381 0.32294,-0.330057 0.81819,-0.0056 0.98661,-0.255787 0.69372,-1.030603 1.26998,-0.216266 2.06455,-0.749086 0.70191,-0.470685 0.24745,-0.613826 0.61333,-0.803896 0.31931,-0.178005 1.30296,-0.294218 1.85317,-0.328868 0.66487,-0.04188 1.11362,-1.242721 1.53472,-1.425089 0.46314,-0.20058 1.06183,-0.271649 1.49817,-0.47503 0.66835,-0.311526 1.0615,-1.387201 1.77222,-1.169304 0.50559,0.155009 0.39863,-0.732523 0.84044,-1.023141 0.52147,-0.343018 1.26218,-0.04216 1.77222,-0.401948 0.56101,-0.395734 0.68514,-1.360986 1.24239,-1.772227 1.0664,-0.78699 2.65685,-0.253448 3.39829,-1.352006 0.32143,-0.476225 0.0121,-1.013163 0.34713,-1.479901 0.80451,-1.120742 3.11183,-0.201503 3.59488,-1.493773 0.17749,-0.474821 -0.75065,-0.511428 -0.52697,-0.966315 0.63613,-1.29365 3.27464,-0.451475 3.87044,-2.087503 -0.0378,-0.61629 -0.69809,-0.710191 -0.25231,-1.025679 2.04417,-1.446714 4.95522,-1.405655 4.87912,-1.844506 -0.14963,-0.919676 -2.85001,0.328978 -2.7771,-0.401947 1.41277,-1.222225 8.11691,-3.100009 8.13031,-4.074295 -6.82389,1.882871 -7.97671,1.675408 -9.48232,1.516443 4.97203,-1.174132 8.16849,-3.702509 9.64676,-4.71376 -4.20962,1.397391 -7.8331,3.099938 -12.49694,3.361753 5.56457,-1.33785 7.54526,-3.326333 9.9939,-6.102307 -4.13798,2.016315 -5.75789,4.309448 -12.18634,5.115704 3.74458,-1.802759 6.35812,-3.727303 8.20339,-6.065765 -4.05508,2.777184 -7.87547,5.546589 -12.21942,6.446101 1.5819,-1.019665 3.14546,-2.252559 4.91128,-3.869977 -3.38582,1.464903 -6.15877,4.237803 -10.19488,4.91473 -2.35675,0.395268 -3.82955,0.926627 -6.83392,1.244249 -3.7166,0.39292 -6.19961,0.910339 -11.12586,2.519451 -2.07058,1.025861 -3.78528,2.130806 -6.24847,3.069423 -1.40663,0.50551 -2.51953,1.059977 -4.22045,1.51644 -0.8977,0.207793 -1.47064,0.199173 -2.85018,0.310598 -3.04464,-0.357132 -4.11678,-0.09553 -5.0609,-10e-7 -1.33949,0.167585 -2.62092,0.411633 -4.06856,0.907788 -0.39762,0.136277 -0.75719,0.123794 -3.45883,0.681733 -2.881176,0.475655 -8.24603,-0.700364 -12.460397,-1.077951 -3.732958,-0.409359 -9.917369,1.591879 -14.409975,0.630978 -1.299774,-0.278003 -4.83597,-1.568495 -7.697184,-3.024398 3.536163,3.539738 5.80593,3.14038 7.088907,3.818511 -6.624354,0.397305 -11.579561,-3.31902 -15.51155,-5.334951 2.795851,2.138475 3.680278,4.95383 11.272825,5.992682 -3.799079,0.801329 -10.776649,-0.964879 -15.548093,-3.361748 2.155628,1.662047 1.709917,2.91794 11.492068,4.658946 -4.522894,0.199253 -8.988472,0.567052 -13.885488,-1.260655 2.561312,2.207413 6.683152,2.93961 10.523738,3.160773 -3.329982,0.186498 -4.417295,0.648412 -10.23141,0.529842 2.052186,0.825305 4.466429,1.481801 7.034095,1.808768 1.187626,0.151232 -2.777707,0.993219 -2.028012,1.260655 2.019463,0.720395 3.4075,-0.06974 4.275267,0.840438 0.303189,0.318007 -0.901116,0.764056 -0.676004,1.224115 0.496337,1.014359 3.307075,-0.434562 3.954887,0.308 0.428667,0.491365 -0.974089,1.364444 -0.666218,1.939257 0.301253,0.614703 3.92972,-0.390161 3.715537,0.189892 -0.272612,0.170231 -0.778867,1.788033 0.632814,1.637146 0.923681,-0.09873 1.987108,-0.420592 2.685745,0.127891 0.377429,0.296311 0.160249,1.30911 0.639463,1.33374 1.933851,0.09938 1.883396,-0.318323 2.868449,0.182702 0.586793,0.298459 0.504255,0.277621 1.352007,1.315474 0.326952,0.400273 1.219339,0.0573 1.735686,0.03654 0.576547,-0.02318 1.579728,-0.0551 1.534711,0.657733 -0.04609,0.72976 1.665582,0.33187 2.39342,0.40197 0.810734,0.0783 0.929821,0.58316 1.534711,0.71254 0.733846,0.15696 1.591511,-0.27177 2.338609,-0.20097 0.597133,0.0566 1.045545,0.69592 1.644335,0.73082 0.57305,0.0335 1.070449,-0.49888 1.644333,-0.51158 0.717737,-0.0159 1.364916,0.55112 2.082824,0.54812 0.605711,-0.002 0.975007,-0.79794 1.534712,-0.56638 0.938973,0.38847 2.287245,-0.0399 2.484772,-0.23752 0.442722,-0.44298 0.554473,-0.29858 0.694273,-0.38368 0.189381,-0.11523 0.375083,0.13884 0.511571,0.16444 0.587051,0.11033 0.827705,-0.0836 1.278926,-0.47503 1.200808,-1.041647 1.631183,-1.417192 1.534713,-2.228993 -0.0495,-0.416539 0.713403,0.557713 1.132763,0.548113 0.66474,-0.01521 1.3527,-0.419868 1.75395,-0.95006 0.68448,-0.904433 -0.31717,-2.35211 0.8039,-3.544454 0.23077,-0.245441 0.9866,-0.219244 0.9866,-0.219244 0.46225,-0.10272 0.69006,1.705961 0.36539,2.338607 -0.6775,1.320176 -5.027008,3.503631 -11.985338,7.454271 0,0 -0.420006,0.95339 -0.219243,1.27893 0.28392,0.46039 1.163983,0.60422 1.278925,1.13277 0.151856,0.69826 -0.876976,1.93665 -0.876976,1.93665 0.20039,0.328 0.19242,0.78102 0.840437,0.84044 1.112329,0.15951 1.951472,-1.4567 2.886718,-2.44823 0.448007,0.0175 0.04077,1.7455 -0.03654,2.81364 l -0.511572,0.87698 c 0.08542,0.68202 0.02782,1.43554 0.475031,1.93666 1.045308,0.47734 1.92419,0.20576 2.777096,-0.18271 0.06391,0.87014 0.0268,1.76553 0.840439,2.44824 0.523753,0.70308 1.157123,0.15645 1.680873,0.32887 0.16811,-4e-5 1.11804,-1.11695 1.93666,-2.04629 0.47447,1.02156 -0.16199,2.50669 1.53471,3.17904 0.76303,0.19778 0.87955,0.0935 1.09622,0.10964 0.79689,0.1768 1.45018,-2.53621 2.15591,-3.54445 0.26128,1.32765 0.36411,2.43606 1.05968,3.76371 0.5682,0.45131 1.72905,1.03344 2.04628,0.32886 0.60199,-1.33703 1.58175,0.17799 2.22899,0.1827 0.62033,0.005 0.90439,-1.02383 1.27892,-1.35201 0.19517,-0.82023 0.0433,-1.32993 -0.29232,-1.97322 0.83334,0.94202 1.41959,1.40546 2.15591,1.57128 0.48101,0.0543 0.96572,0.12704 1.352,-0.29233 0.39865,-0.60965 0.62907,-1.19902 0.87698,-1.7905 0.48805,-0.66991 0.16459,-1.33983 0.21924,-2.00974 0.51432,0.43496 0.66105,1.01695 1.6078,1.27893 0.83952,0.44699 1.46742,0.0476 2.11936,-0.25579 0.47336,-0.77954 0.17794,-1.55907 0.21925,-2.33861 0.95519,0.1494 1.67733,-0.40036 2.44822,-0.80389 0.79243,-0.90134 0.0348,-1.80268 -0.0365,-2.70402 0.79171,-0.16227 1.58343,-0.5333 2.37514,-0.9866 -0.19131,-1.30699 -0.44402,-2.82022 -2.3386,-3.65407 1.38006,0.14737 2.30206,-0.10962 2.30206,-0.10962 1.01462,-1.21803 1.44846,-1.44774 1.24239,-2.265536 -0.13561,-0.949286 -11.11223,-2.588276 -12.31429,-3.581014 m 6.10235,16.44334 c -2.21735,-3.47342 -4.66596,-6.34002 -6.38894,-9.04439 m 9.05641,5.90189 c -2.81371,-1.93322 -5.24133,-4.12383 -7.64975,-6.32725 m 9.98839,2.63663 c -3.69266,-1.16898 -6.18582,-2.88774 -9.13402,-4.39793 m 6.7954,0.74388 c -1.22958,-0.17373 -1.84323,-0.58762 -2.50637,-0.95813 m 2.46985,5.59878 c -1.23526,-0.65579 -2.25148,-1.53062 -3.28705,-2.38609 m 0.87533,5.894 c -1.09183,-1.32284 -1.45847,-1.65268 -2.00069,-2.31402 m -1.94572,3.62949 c -0.55204,-0.89594 -0.56593,-0.95222 -0.62119,-1.24238 m -0.47503,5.04262 c -1.65104,-3.20275 -2.95826,-6.52829 -4.12911,-9.90254 m -14.945164,7.19852 c 0.998456,-1.22551 1.346274,-1.71505 1.766494,-2.41428 m 2.69148,3.1451 c 0.12628,-0.64543 0.43973,-1.14576 0.65773,-1.9732 m 10.45066,2.66747 c -0.75864,-2.30473 -1.61997,-3.58575 -1.9839,-5.23748 m -0.68358,7.79534 -0.0259,-2.46989 m -6.88032,2.3968 c 0.44634,-3.34783 1.07699,-6.65975 1.68087,-9.90254 m -6.833113,8.44092 c 1.347143,-3.85621 3.113703,-7.48505 5.006083,-10.99877 m -8.62362,8.73324 c 3.496246,-5.30491 5.22603,-7.52655 8.11205,-10.99877 m -11.766122,6.97927 c 3.566281,-2.55344 6.902192,-4.71474 10.085242,-6.68694 m -10.523732,3.80024 c 4.953398,-2.17186 8.643752,-4.97038 12.496932,-7.710105 m -11.181466,8.660165 c 0.05536,0.0611 2.26829,-1.66464 4.896459,-3.14251 M 75.018124,98.400965 c 1.46318,-1.822246 3.162494,-3.313903 4.783157,-4.915671 m -7.651606,4.732969 c 3.644904,-3.768448 6.77023,-6.185991 9.912449,-8.647458 m -10.551912,7.313718 c 1.267252,-1.75132 2.725631,-2.897401 4.195713,-4.006426 m -6.881458,3.878535 c 3.77521,-2.898212 7.550419,-5.747937 11.325629,-7.599239 m -11.958443,5.962093 c 0.397707,-1.296839 5.060782,-4.001639 6.558258,-4.683101 m -10.273795,4.493209 c 4.644975,-2.628218 9.254044,-5.139741 13.761953,-7.322495 m -13.095735,5.383238 c 1.829417,-1.103406 3.408718,-1.580104 4.827506,-2.101785 m -8.782393,1.793785 c 4.164342,-1.554324 8.356291,-2.994441 12.554772,-4.300091 m -11.878768,3.075976 c 1.826731,-0.750486 3.509475,-1.214114 5.419215,-1.73239 m -9.694482,0.891952 c 5.924012,-1.300228 11.832083,-2.54372 17.652651,-3.475772 m -22.658734,0.406349 c 9.11918,1.979955 17.917273,-1.169355 24.783669,-1.933905 m -17.749574,3.742673 c 1.968616,-0.485585 3.850181,-0.75354 5.754442,-1.078237 m 2.010465,-8.933931 c 3.004371,1.883555 6.000674,3.387859 8.970822,3.662936 m 47.703885,12.287069 c 0.0587,-0.735324 0.21012,-1.47068 0.0835,-2.206034 m 73.31942,22.419288 c 0.27172,-0.20857 0.53535,-0.21218 0.69376,2.4e-4 0.17095,0.22925 -0.0179,0.54148 -0.25303,0.70428 -0.23385,0.1619 -0.39717,0.14127 -0.61514,-0.0414 -0.22969,-0.36732 -0.0916,-0.43886 0.17441,-0.66308 z m -2.98372,20.03571 c -0.18835,-0.35256 -0.39115,-0.47573 -0.60292,-0.45676 m 0.0183,-3.81851 c -0.006,1.27377 -0.1545,2.97257 -0.0183,3.81851 -0.15207,0.16652 -0.50775,0.39954 -0.56497,0.80317 m -6.28441,-13.14723 c -0.24924,1.5459 -0.24584,3.04969 -0.20671,4.54753 m -3.15226,-6.45955 c 2.05514,-0.10325 2.34732,1.18918 3.35897,1.91202 1.31769,0.3132 2.63539,0.82768 3.95308,1.62776 m -11.93709,-2.22204 c 1.92491,-0.3115 3.26974,-0.81637 4.62504,-1.31774 0.24896,-0.58755 -0.3265,-1.33999 -1.29191,-2.17042 m -3.61735,7.13135 c 0.73117,-0.0552 1.41354,-0.0616 1.90316,0.12478 0.89452,0.37236 1.35704,1.46471 1.98954,2.27376 m 10.11161,11.29572 c 0.0163,-1.25636 0.20409,-2.38643 0.54833,-3.59594 -2.43837,-2.5405 -4.07587,-5.66861 -6.49112,-8.5997 -1.3157,0.073 -2.24097,-1.05324 -4.16882,0.89992 -0.30553,1.30707 -0.79684,2.8881 -1.0505,4.62946 m 8.23115,10.5848 c 0.87582,-1.812 1.91513,-2.80656 2.93096,-3.91854 0.40089,0.27414 0.80832,0.4894 1.16238,1.18501 m -6.70559,7.49843 c -0.2155,-0.86091 -0.40671,-1.77039 -0.86466,-2.14638 0.6378,-0.9567 0.55647,-0.91109 1.29191,-1.52445 0.84405,-0.66475 1.34096,-0.74685 2.185,-1.09407 1.10678,0.84323 1.21166,1.11766 1.34099,1.74313 m -13.9388,-11.32024 c 0.55203,-0.60987 1.32948,-0.7689 2.06706,-1.00769 1.12364,-0.25592 1.75359,0.006 2.2996,0 2.7572,3.97126 4.33321,7.69404 6.04615,11.67887 m -1.29191,1.52445 c -1.61084,0.56757 -3.00028,1.1377 -3.97909,1.70533 m -8.29407,-16.2264 c 1.37341,0.3557 2.25224,1.35435 3.15226,2.32544 -0.37784,1.72428 -1.03006,2.99465 -0.87849,5.24515 m -7.00216,-5.24515 c 1.91363,-0.53408 3.15268,-1.55 4.72839,-2.32544 0.41657,-1.26607 0.45298,-2.53215 0.3359,-3.79822 m -4.44417,-7.28638 c 3.4444,0.22523 6.04614,1.15411 9.06921,1.73116 0.36426,0.3144 0.54518,0.75977 0.56844,1.31775 -0.21907,0.77515 -0.27494,1.55029 -0.85266,2.32544 -1.21059,0.74239 -2.69232,1.36427 -4.34082,1.91203 -3.79226,-0.43388 -7.58104,-0.91993 -11.42049,-0.64596 m 4.00492,-5.06429 c 1.60202,-0.5081 2.99959,-1.53306 4.03076,-2.2996 m -5.16768,1.93787 1.13692,0.36173 c -0.71705,1.02158 -1.85992,1.88028 -2.86804,2.79053 m -2.55798,4.10828 c 0.97753,-0.74261 1.07779,-1.28171 1.4211,-1.83452 0.42726,-0.8183 0.89507,-1.68728 1.13688,-2.27376 -0.68087,-0.034 -1.22312,-0.20658 -2.17045,0.0259 m -1.47274,7.93227 c 0.47349,-1.30986 0.94637,-2.67539 1.08521,-3.84989 -0.59368,-0.17563 -1.44003,-0.0392 -2.17045,-0.18087 m -1.34359,4.49585 c 0.80961,-0.45542 1.61922,-0.6898 2.42883,-0.46509 0.0757,0.43064 0.21696,0.86127 0.20671,1.29191 m -2.66134,3.48816 c 0.5722,-0.32434 1.08921,-0.65293 2.27376,-0.93017 m 0.95602,3.66902 c -0.81778,0.39389 -1.7294,0.66266 -2.27377,1.4211 m 10.59367,-3.04891 c -0.3277,0.20158 -0.94046,0.26243 -1.15071,0.41472 -0.7494,-0.0677 -1.4077,-0.1865 -2.15658,0.10199 -1.316,0.50566 -2.62926,1.0209 -3.84989,1.86035 m 8.75915,-1.55023 c -0.49124,-0.30126 -0.88575,-0.66056 -1.60197,-0.82683 0.0418,-1.59112 0.23063,-3.16887 -0.23254,-4.8059 -2.88126,0.0577 -5.55293,-0.47148 -8.6558,0.2067 7.7e-4,0.64117 -0.0603,1.58167 -0.38758,2.55799 0.40622,1.17298 0.87541,2.30997 0.95602,3.66902 0.74466,0.17042 0.80742,0.49237 1.16272,0.74931 l 0.39957,3.29659 m 17.24793,3.70557 c 0.76653,-0.24674 1.53307,-0.27733 2.2996,-0.28422 0.22067,1.24468 0.49991,1.77586 0.27795,2.58692 m -11.33671,-2.48357 c 0.72619,-1.29965 0.58992,-2.04342 0.6718,-4.70256 -0.0661,-0.93 -0.5189,-1.16404 -0.80099,-1.70532 0.0385,-0.51032 0.14324,-0.772 0,-1.9637 1.63318,-0.57604 3.44416,-0.2631 5.16765,-0.38758 1.56445,2.79474 3.15253,5.57598 3.7207,8.94003 -0.76934,0.18398 -1.53838,0.36845 -2.17041,0.77518 m -5.13922,-0.0838 c 1.71308,-0.12604 3.42615,-0.0823 5.13922,0.0838 0.0371,1.21489 0.0923,1.82183 -0.0775,2.68714 m -9.84438,-3.48816 c 1.11104,-0.25737 2.22209,-0.11393 3.33313,-0.15503 0.47446,0.21622 0.48015,0.0711 1.44953,0.87223 0.15685,1.34636 0.0934,1.86043 -0.0543,2.64177 m -7.25741,-5.45187 c 1.01831,0.66257 1.74022,1.38442 2.52901,2.0929 0.0471,0.918 -0.23732,1.70341 -0.41341,2.53214 m -4.76734,-1.19001 c 0.88391,-1.14501 3.02757,-3.8647 2.65174,-3.43503 -0.72654,-0.56617 -1.98898,-1.28833 -2.62663,-1.58683 -1.19023,0.77834 -1.36357,0.88211 -1.92403,1.50932 m -2.69193,-5.44933 c -1.87227,2.1226 -7.12175,2.50418 -9.24481,5.49938 -0.96679,2.25417 0.0892,2.77012 1.55299,2.83192 1.09061,1.64964 2.87143,0.48588 4.45797,0.62119 1.17608,0.7261 1.89366,0.16979 2.50304,-0.23751 1.66228,-0.7599 2.46147,-1.86935 3.52618,-2.75883 m 6.56282,4.19578 c -1.165,1.42109 -2.53214,4.52164 -2.53214,4.52164 0,0 -0.20386,1.15185 0.23256,1.60197 -0.10923,2.45153 0.0477,3.83466 1.36943,4.70256 0.69176,3.09559 2.19427,1.40775 3.53983,0.64595 1.31323,-2.40235 2.03385,-4.85764 2.27611,-6.88706 0.0741,-1.17707 0.71423,-1.64566 0.80442,-2.18015 0.13957,-0.82714 0.0974,-1.34559 0.0974,-1.34559 m 19.84374,-23.12525 1.38661,-0.89358 c 8.17751,-1.31999 12.84963,22.20219 8.0087,24.03182 -2.50087,-1.53229 -2.15935,-4.80438 -2.89797,-6.28742 -0.53502,-2.20199 -2.14607,-5.97733 -5.25711,-8.996 m -8.52662,-17.62167 c 2.34268,0.79685 4.43017,3.18327 5.0643,5.68441 m -10.8254,-6.09182 c 2.32854,0.45534 3.88606,0.44605 5.76127,0.40741 1.14372,-0.21436 1.80489,-1.10428 2.6355,-1.757 0.61977,-0.56293 1.45341,-1.07802 1.96371,-1.70531 1.68388,-1.24732 2.93686,-1.7176 4.23747,-2.27377 1.11922,-0.1022 1.73696,-0.24532 2.89388,0.51676 1.625,1.20206 1.11034,1.83766 0.67179,3.33313 -0.74896,1.09771 -1.97283,2.90958 -3.56568,4.03076 -1.80332,1.11062 -4.00444,2.16658 -3.77237,3.53984 0.61047,1.49104 1.33095,2.45866 2.22209,4.08244 0.74341,2.45412 1.19608,5.09529 1.24023,7.85482 -0.0681,0.68121 -0.0168,3.95907 -0.51711,4.36316 -0.0943,1.42874 -1.61928,4.44234 -2.75231,4.47666 -1.18471,0.88698 -2.13405,3.41523 -3.95324,3.02177 -1.47524,1.07701 -2.42819,2.62524 -4.56584,2.14587 -1.59995,0.3651 -1.91996,1.40592 -4.82548,1.15958 -1.25551,0.2899 -2.68354,0.38664 -5.11596,-0.12915 -2.91572,0.43754 -4.56821,0.18225 -5.14181,-0.82683 -1.49706,-0.0575 -4.25072,1.14411 -4.76734,-1.19001 -1.76622,0.19424 -1.82342,-1.32122 -1.89892,-3.51254 -1.2974,-0.39344 -1.41105,-2.55267 -1.91203,-4.13412 -1.36624,-1.40578 -0.78859,-2.82707 -0.95601,-4.15995 -0.83776,-1.33497 -0.41618,-2.98001 0.0258,-4.31498 -0.40958,-1.6061 0.47746,-3.02404 1.34359,-4.49585 -0.19028,-0.71234 0.11981,-1.98111 2.55798,-3.90157 0.1772,-1.116 2.6745,-2.49495 3.90157,-3.1781 0.49698,-0.95081 2.89309,-1.08332 4.49585,-1.80868 1.4953,-0.27365 1.4674,-0.34145 1.757,-0.45217 0.38345,-0.23637 0.43726,-0.47275 0.6375,-0.70912 m -16.73567,-6.46773 c 3.02005,-2.87833 14.84737,-1.97346 16.84529,-1.60779 2.69305,0.4929 8.8405,2.72829 7.28921,7.6925 -3.40935,-0.0774 -5.56058,0.11881 -7.39883,0.383 -4.2131,-1.75401 -4.58524,-2.15146 -9.29545,-3.39454 -2.1867,-0.80707 -5.13491,0.16862 -7.05232,-1.031 -0.78886,-0.36266 -1.17563,-1.12996 -0.38787,-2.04217 z M 58.468132,156.15 c 0.38246,-0.85912 0.05985,-1.95326 -0.109622,-2.99635 0.53391,-1.02377 -3.352307,-4.83921 -6.321552,-8.0755 0.29514,-1.59455 -0.366541,-2.02835 -0.803897,-2.81364 3.034735,-1.13108 5.246695,-3.10498 6.577338,-5.80998 4.643204,-1.74892 8.566952,-2.85034 12.241153,-3.72716 1.777866,0.13267 5.036535,1.10232 4.82338,0.10963 -1.515299,-0.53213 -2.521885,-1.17732 -4.823381,-1.53474 -1.435183,-0.50415 -5.349932,1.00751 -11.035309,0.21926 -0.307527,-1.26947 -0.474633,-0.71349 -0.694273,-0.84043 8.761895,-3.17769 4.430517,-6.38582 13.593161,-12.8989 -3.85134,0.31935 -7.108226,3.01651 -10.08525,6.83312 -1.501485,1.06163 -2.594734,1.61041 -5.079163,2.46649 -0.818836,-0.19411 -1.824588,-0.0892 -2.192445,-1.00484 0.398286,-6.53428 5.150818,-14.21933 3.032882,-15.09133 -2.190076,5.40737 -5.895329,8.8139 -7.015825,13.15467 L 50.1003,123.33637 c -2.282775,-1.12442 -4.959233,-0.7558 -8.11205,-0.91351 -2.77774,-0.0193 -5.121619,-0.47981 -8.185128,1.00487 l -1.059682,0.49332 c 0.01397,-1.06941 -0.98086,0.72512 -0.292326,-6.61387 0.648098,-4.20046 -2.429777,-5.64095 -4.165646,-8.07551 4.44316,9.92506 0.939724,7.50598 0.730815,16.95491 l -0.803897,0.40193 c -1.368161,0.45531 -2.2025,0.28783 -2.996343,0.0731 -3.322498,-1.7069 -2.442146,-3.49597 -5.919602,-6.59561 l -1.461629,-1.55298 c 3.406243,6.09987 1.793823,9.25764 6.79658,12.4604 -0.975426,0.59921 -1.911776,0.98341 -3.179046,1.09622 -2.949948,-0.006 -7.455715,-2.78431 -8.185129,-2.39341 -1.523802,-0.0779 -3.3683466,-0.19041 -3.5809936,0.31059 0.15534,0.96755 2.8501786,0.87698 4.2752686,1.31547 5.155984,4.48848 7.89096,3.74406 10.742982,5.51765 1.591898,3.60224 2.478294,3.4829 5.554194,4.60413 0,0 0.605026,0.77871 0.767355,1.35201 0.132237,0.46702 -0.292326,1.13277 -0.292326,1.13277 -3.246596,1.67123 -7.382683,2.41769 -8.879402,5.66381 -0.462145,1.93807 -1.04447,3.63578 -0.95006,6.68696 m 28.390409,-26.27361 c -0.26072,1.49642 1.774557,2.20936 2.175762,1.87548 0.290209,-0.24151 0.281886,-0.26811 0.291788,-0.77202 0.02495,-1.26964 -0.965154,-2.22333 -1.722674,-1.94229 -0.380373,0.14112 -0.695649,0.55629 -0.744876,0.83883 z m -17.251441,-0.96803 c -1.106579,0.11636 -2.047048,1.54562 -1.899109,2.64842 0.0864,0.64408 0.301022,0.70743 0.943093,0.6072 1.062075,-0.16579 2.099066,-1.23322 1.963706,-2.2996 -0.07572,-0.5965 -0.409695,-1.0189 -1.00769,-0.95602 z m 6.097818,27.20765 c 0.718524,-0.84407 1.17374,-1.0341 2.338738,-2.14457 1.974115,-0.53688 3.746627,-0.38353 5.040288,-0.38941 1.945672,-0.009 3.121335,-0.0405 4.196494,-0.024 1.364013,0.90174 2.324797,1.84987 3.591513,2.55799 m -27.362671,0.0258 -0.103352,-3.22978 c 1.754684,-2.06858 3.922535,-3.64136 6.651124,-4.54126 1.302684,1.38497 2.320829,2.6717 4.200926,3.09432 -1.494527,1.56752 -3.396229,3.13503 -4.185791,4.70255 m 3.414197,-20.00547 10.286222,-0.0365 m 62.196041,5.26625 c 1.06229,0.37567 2.89632,1.91302 3.2247,3.39828 m -0.12896,29.0337 c 9.60377,-0.2839 20.77354,-1.07675 27.3885,-2.63549 m -28.06029,-7.028 c 9.93369,-5.82746 22.04184,-3.49773 25.99324,-0.77515 m -26.40666,5.21932 c 7.03032,-3.88461 16.37848,-6.44391 27.8536,-2.11872 m -27.80193,5.73607 c 12.6925,-5.20004 24.40353,-4.08643 28.26702,-2.79052 m -26.56169,5.58105 c 10.37308,1.86879 18.49056,1.91148 26.56168,-1.96371 m -23.87451,4.80592 c -0.18282,0.50597 14.64722,4.44185 23.56446,-2.6355 M 97.632928,137.06131 c 0.71562,-0.25767 1.46946,-0.34888 2.282955,-0.0646 m -2.456985,0.95633 c 0.97375,-0.63158 1.88709,-0.48117 2.837712,-0.24711 m -3.037762,1.12852 c 1.15201,-0.70195 2.33293,-0.70069 3.536602,-0.14559 m -3.730202,1.2719 c 1.47396,-1.24689 2.719605,-0.85371 4.013662,-0.66217 m -4.285462,1.67847 c 0.74013,-1.06778 3.470092,-1.40626 4.556382,-0.76919 m -2.957272,11.67125 c 0.20509,0.50175 0.32946,1.01695 1.09623,1.42509 1.601572,0.54657 1.453272,-0.008 2.009742,0 0.66991,-0.0127 0.8074,0.57891 1.71741,0.95006 0.52801,0.21535 1.64392,0.0694 1.64251,-0.15507 m 3.85688,-5.54529 c 0.28017,0.24507 -6.14207,2.03138 -4.23874,-0.49329 0.21034,-0.27901 2.31758,-1.18715 4.23874,0.49329 z m -11.528612,-2.6492 c 0.98215,1.04699 3.102312,3.38866 3.818502,1.77223 0.32207,-0.79344 -0.83799,-2.70443 -3.818502,-1.77223 z m 2.795375,0.34714 c -0.16411,-0.0119 -0.29384,0.21998 -0.3106,0.38367 -0.0216,0.21135 0.0459,0.82602 0.25579,0.85871 0.170197,0.0265 0.307417,-0.5599 0.328857,-0.73081 0.0282,-0.22488 -0.048,-0.49518 -0.274047,-0.51157 z m 5.846517,1.58952 c -0.13618,10e-4 -0.17936,0.22927 -0.18271,0.36541 -0.004,0.16629 0.0713,0.76327 0.23752,0.76735 0.14975,0.004 0.16572,-0.56275 0.16443,-0.71254 -10e-4,-0.15799 -0.0613,-0.42158 -0.21924,-0.42022 z m -6.869672,-1.66261 c -0.11937,0.391 0.0851,0.95242 0.42022,1.22412 0.309815,0.25119 0.894832,0.38328 1.221162,0.0312 0.18658,-0.2013 0.27332,-0.58278 -0.0336,-0.83515 -0.50375,-0.41422 -0.590557,-0.55111 -1.059682,-0.63946 -0.36747,-0.0692 -0.46532,0.0407 -0.54812,0.21923 -1e-5,2e-5 2e-5,6e-5 2e-5,6e-5 z m 6.211932,2.7771 c 0.39536,0.17296 0.78085,0.0966 1.16931,-0.0913 0.29097,-0.14079 0.88518,-0.45032 0.82217,-0.76736 -0.0721,-0.36285 -0.67172,-0.39731 -1.04142,-0.38367 -0.44122,0.0163 -0.7841,0.0307 -0.97307,0.47354 0,0 -0.40123,0.57272 0.023,0.76884 z m -4.11083,1.93666 c 0.21009,0.19629 2.00967,0.0443 2.42996,0.71255 0.0385,0.16812 -0.22179,0.28766 -0.38368,0.34713 -0.18302,0.0672 -0.40532,-0.0948 -0.58465,-0.0183 -0.30144,0.12864 -0.33598,0.79312 -0.65774,0.73082 -0.33102,-0.0641 -0.1461,-0.67938 -0.34713,-0.95006 -0.18156,-0.24446 -0.70935,-0.24436 -0.73082,-0.54811 -0.009,-0.12885 0.14889,-0.24206 0.27406,-0.27403 z m 10.1583,6.21193 v 0 c 0,0 -3.84336,5.35086 -4.96955,8.40437 -0.73589,1.99525 -1.73663,4.19841 -0.94119,5.76825 1.19407,2.35655 2.33656,2.30152 2.73169,4.51798 0.14587,0.81824 -0.0161,1.47667 -0.79091,1.77741 -0.27622,0.10721 -0.44433,0.2603 -0.63782,0.61914 -0.44155,0.8189 -2.32603,0.86836 -3.41289,0.61806 -1.77989,-0.4099 -3.643432,-2.01326 -4.330082,-3.69062 -0.39325,-0.96063 1.954162,-2.31009 2.155912,-4.34835 0.0602,-0.60871 -0.40087,-0.79483 -0.54811,-1.38854 -0.47362,-1.90979 -1.092412,-2.17616 -1.750482,-3.73907 -1.80866,-4.29549 -3.75555,-8.66227 -3.51139,-11.31573 1.39697,-3.65284 -2.286521,-3.48732 -1.996937,-7.92536 1.374787,-4.23133 3.095737,-3.89381 3.531637,-5.26585 0.71356,-2.24598 0.70267,-5.33495 1.79052,-5.26187 1.323925,-0.23613 3.024232,4.51183 2.886732,4.78684 m 10.88912,2.85018 c 0,0 1.14125,1.95329 2.33861,2.41169 1.12953,0.43243 1.52631,0.087 3.28868,0.47504 1.76237,0.38808 21.13425,7.31939 22.6918,18.19729 1.30442,9.11 3.15207,13.51888 0.25579,19.87816 -1.63574,3.59155 -13.22562,14.32929 -33.39825,2.95981 -1.49008,-0.88323 -2.72819,-2.05743 -3.19397,-2.95356 -1.23823,-1.8132 -0.65254,-3.19958 -0.0216,-4.20843 0.60438,-0.96642 2.67171,-2.09031 3.83677,-1.46163 1.56727,0.84572 -0.26328,-0.28094 6.24847,3.87332 4.53573,2.89363 6.88889,3.01189 10.08525,4.23873 4.42164,0.52224 6.81347,0.19274 9.5006,-1.53471 l 4.09256,-2.63094 m -36.83308,-43.08155 c 3.34535,-0.081 4.85273,0.90845 7.19853,1.82704 m -0.91352,0.84043 c -0.16255,-0.27092 4.69443,-3.57666 5.04262,-2.41169 1.24496,1.31638 -1.45027,6.29429 -1.68087,6.21193 m -1.1963,-5.45852 c 1.28671,0.16778 2.15492,1.05099 2.77235,2.37483 m -3.43413,-2.00602 c 1.63702,0.51819 2.47883,1.51539 3.0892,2.957 m -4.26256,-2.01413 c 1.4225,0.74622 2.64091,1.85415 3.47251,3.57182 m -0.56882,-5.40328 c 0.89074,0.27808 1.54819,0.97982 2.03304,1.86953 m 16.29225,-41.85038 c -5.33619,-0.878416 -6.18154,-1.257521 -10.42931,-2.604732" />
  </g>
</svg>
